<svg width="46" height="50" viewBox="0 0 46 50" fill="none" xmlns="http://www.w3.org/2000/svg">
<path d="M26.5896 45.5417C26.1867 46.2362 25.6084 46.8127 24.9126 47.2135C24.2168 47.6143 23.428 47.8252 22.625 47.8252C21.822 47.8252 21.0332 47.6143 20.3374 47.2135C19.6416 46.8127 19.0633 46.2362 18.6604 45.5417M36.375 15.75C36.375 12.1033 34.9263 8.60591 32.3477 6.02728C29.7691 3.44866 26.2717 2 22.625 2C18.9783 2 15.4809 3.44866 12.9023 6.02728C10.3237 8.60591 8.875 12.1033 8.875 15.75C8.875 31.7917 2 36.375 2 36.375H43.25C43.25 36.375 36.375 31.7917 36.375 15.75Z" stroke="#1E1E1E" stroke-width="4" stroke-linecap="round" stroke-linejoin="round"/>
</svg>
