<svg width="39" height="39" viewBox="0 0 39 39" fill="none" xmlns="http://www.w3.org/2000/svg">
<path d="M27.6905 21.2476L20.6916 36.9951C19.2995 36.9951 17.9643 36.442 16.9799 35.4576C15.9955 34.4732 15.4425 33.1381 15.4425 31.7459V24.747H5.53907C5.03181 24.7528 4.52937 24.6481 4.06655 24.4404C3.60374 24.2327 3.19162 23.9269 2.85874 23.5441C2.52587 23.1613 2.2802 22.7107 2.13877 22.2235C1.99733 21.7363 1.9635 21.2242 2.03963 20.7227L4.45424 4.97516C4.58079 4.14071 5.00464 3.3801 5.64772 2.83349C6.29079 2.28688 7.10974 1.99109 7.95368 2.00063H27.6905M27.6905 21.2476V2.00063M27.6905 21.2476H32.3623C33.3526 21.2651 34.3148 20.9184 35.0663 20.2733C35.8179 19.6282 36.3064 18.7296 36.4391 17.7481V5.50008C36.3064 4.51859 35.8179 3.62 35.0663 2.97491C34.3148 2.32982 33.3526 1.98312 32.3623 2.00063H27.6905" stroke="#1E1E1E" stroke-width="4" stroke-linecap="round" stroke-linejoin="round"/>
</svg>
