<svg width="39" height="39" viewBox="0 0 39 39" fill="none" xmlns="http://www.w3.org/2000/svg">
<path d="M22.9966 14.2481V7.24917C22.9966 5.857 22.4436 4.52185 21.4592 3.53744C20.4748 2.55304 19.1397 2 17.7475 2L10.7486 17.7475V36.9944H30.4855C31.3294 37.004 32.1483 36.7082 32.7914 36.1616C33.4345 35.615 33.8584 34.8544 33.9849 34.0199L36.3995 18.2724C36.4756 17.7709 36.4418 17.2588 36.3004 16.7716C36.1589 16.2844 35.9133 15.8338 35.5804 15.451C35.2475 15.0682 34.8354 14.7624 34.3726 14.5546C33.9098 14.3469 33.4073 14.2423 32.9001 14.2481H22.9966ZM10.7486 36.9944H5.49944C4.57133 36.9944 3.68124 36.6257 3.02496 35.9695C2.36869 35.3132 2 34.4231 2 33.495V21.2469C2 20.3188 2.36869 19.4287 3.02496 18.7725C3.68124 18.1162 4.57133 17.7475 5.49944 17.7475H10.7486" fill="#F6AA1C"/>
<path d="M10.7486 17.7475L17.7475 2C19.1397 2 20.4748 2.55304 21.4592 3.53744C22.4436 4.52185 22.9966 5.857 22.9966 7.24916V14.2481H32.9001C33.4073 14.2423 33.9098 14.3469 34.3726 14.5546C34.8354 14.7623 35.2475 15.0682 35.5804 15.451C35.9133 15.8338 36.1589 16.2844 36.3004 16.7716C36.4418 17.2588 36.4756 17.7709 36.3995 18.2724L33.9849 34.0199C33.8584 34.8544 33.4345 35.615 32.7914 36.1616C32.1483 36.7082 31.3294 37.004 30.4855 36.9944H10.7486M10.7486 17.7475V36.9944M10.7486 17.7475H5.49944C4.57133 17.7475 3.68124 18.1162 3.02496 18.7725C2.36869 19.4287 2 20.3188 2 21.2469V33.495C2 34.4231 2.36869 35.3132 3.02496 35.9695C3.68124 36.6257 4.57133 36.9944 5.49944 36.9944H10.7486" stroke="#1E1E1E" stroke-width="4" stroke-linecap="round" stroke-linejoin="round"/>
</svg>
