<svg width="39" height="39" viewBox="0 0 39 39" fill="none" xmlns="http://www.w3.org/2000/svg">
<path d="M10.7486 17.7475L17.7475 2C19.1397 2 20.4748 2.55304 21.4592 3.53744C22.4436 4.52185 22.9966 5.857 22.9966 7.24916V14.2481H32.9001C33.4073 14.2423 33.9098 14.3469 34.3726 14.5546C34.8354 14.7623 35.2475 15.0682 35.5804 15.451C35.9133 15.8338 36.1589 16.2844 36.3004 16.7716C36.4418 17.2588 36.4756 17.7709 36.3995 18.2724L33.9849 34.0199C33.8584 34.8544 33.4345 35.615 32.7914 36.1616C32.1483 36.7082 31.3294 37.004 30.4855 36.9944H10.7486M10.7486 17.7475V36.9944M10.7486 17.7475H5.49944C4.57133 17.7475 3.68124 18.1162 3.02496 18.7725C2.36869 19.4287 2 20.3188 2 21.2469V33.495C2 34.4231 2.36869 35.3132 3.02496 35.9695C3.68124 36.6257 4.57133 36.9944 5.49944 36.9944H10.7486" stroke="#1E1E1E" stroke-width="4" stroke-linecap="round" stroke-linejoin="round"/>
</svg>
