<svg width="46" height="37" viewBox="0 0 46 37" fill="none" xmlns="http://www.w3.org/2000/svg">
<path d="M4.58333 36.6667C3.32292 36.6667 2.24392 36.2179 1.34635 35.3203C0.448785 34.4227 0 33.3438 0 32.0833V4.58333C0 3.32292 0.448785 2.24392 1.34635 1.34635C2.24392 0.448785 3.32292 0 4.58333 0H41.25C42.5104 0 43.5894 0.448785 44.487 1.34635C45.3845 2.24392 45.8333 3.32292 45.8333 4.58333V32.0833C45.8333 33.3438 45.3845 34.4227 44.487 35.3203C43.5894 36.2179 42.5104 36.6667 41.25 36.6667H4.58333ZM22.9167 20.625L4.58333 9.16667V32.0833H41.25V9.16667L22.9167 20.625ZM22.9167 16.0417L41.25 4.58333H4.58333L22.9167 16.0417ZM4.58333 9.16667V4.58333V32.0833V9.16667Z" fill="#1D1B20"/>
</svg>
