<svg width="56" height="66" viewBox="0 0 56 66" fill="none" xmlns="http://www.w3.org/2000/svg">
<path d="M53.75 27.125C53.75 46.6667 27.875 63.4167 27.875 63.4167C27.875 63.4167 2 46.6667 2 27.125C2 20.4614 4.72611 14.0708 9.57861 9.35894C14.4311 4.64709 21.0125 2 27.875 2C34.7375 2 41.3189 4.64709 46.1714 9.35894C51.0239 14.0708 53.75 20.4614 53.75 27.125Z" stroke="#1E1E1E" stroke-width="4" stroke-linecap="round" stroke-linejoin="round"/>
<path d="M27.875 35.5C32.6385 35.5 36.5 31.7504 36.5 27.125C36.5 22.4996 32.6385 18.75 27.875 18.75C23.1115 18.75 19.25 22.4996 19.25 27.125C19.25 31.7504 23.1115 35.5 27.875 35.5Z" stroke="#1E1E1E" stroke-width="4" stroke-linecap="round" stroke-linejoin="round"/>
</svg>
