<svg width="52" height="52" viewBox="0 0 52 52" fill="none" xmlns="http://www.w3.org/2000/svg">
<path d="M10.2067 30.6201H40.8268V25.5168H10.2067V30.6201ZM10.2067 22.9651H40.8268V17.8617H10.2067V22.9651ZM10.2067 15.3101H40.8268V10.2067H10.2067V15.3101ZM51.0335 51.0336L40.8268 40.8268H5.10335C3.69993 40.8268 2.49852 40.3271 1.49911 39.3277C0.499703 38.3283 0 37.1269 0 35.7235V5.10335C0 3.69993 0.499703 2.49852 1.49911 1.49911C2.49852 0.499704 3.69993 0 5.10335 0H45.9302C47.3336 0 48.535 0.499704 49.5344 1.49911C50.5338 2.49852 51.0335 3.69993 51.0335 5.10335V51.0336ZM5.10335 35.7235H42.9957L45.9302 38.5941V5.10335H5.10335V35.7235Z" fill="#1D1B20"/>
</svg>
