<svg width="30" height="30" viewBox="0 0 30 30" fill="none" xmlns="http://www.w3.org/2000/svg">
<path d="M13.625 4.74004H4.58333C3.89819 4.74004 3.24111 5.01221 2.75664 5.49668C2.27217 5.98115 2 6.63823 2 7.32337V25.4067C2 26.0919 2.27217 26.7489 2.75664 27.2334C3.24111 27.7179 3.89819 27.99 4.58333 27.99H22.6667C23.3518 27.99 24.0089 27.7179 24.4934 27.2334C24.9778 26.7489 25.25 26.0919 25.25 25.4067V16.365M23.3125 2.80254C23.8264 2.28868 24.5233 2 25.25 2C25.9767 2 26.6736 2.28868 27.1875 2.80254C27.7014 3.3164 27.99 4.01334 27.99 4.74004C27.99 5.46674 27.7014 6.16368 27.1875 6.67754L14.9167 18.9484L9.75 20.24L11.0417 15.0734L23.3125 2.80254Z" stroke="#1E1E1E" stroke-width="4" stroke-linecap="round" stroke-linejoin="round"/>
</svg>
