<svg width="19" height="16" viewBox="0 0 19 16" fill="none" xmlns="http://www.w3.org/2000/svg">
<path d="M7.08101 0.332033L0.331015 7.08203C0.226135 7.18655 0.142919 7.31074 0.0861396 7.44749C0.0293578 7.58423 0.000127697 7.73084 0.000127698 7.87891C0.0001277 8.02697 0.0293578 8.17358 0.0861396 8.31033C0.142919 8.44708 0.226135 8.57127 0.331015 8.67578L7.08101 15.4258C7.29236 15.6371 7.579 15.7559 7.87789 15.7559C8.17678 15.7559 8.46342 15.6371 8.67476 15.4258C8.88611 15.2144 9.00484 14.9278 9.00484 14.6289C9.00484 14.33 8.88611 14.0434 8.67476 13.832L3.8457 9.00297L17.627 9.00297C17.9253 9.00297 18.2115 8.88444 18.4224 8.67347C18.6334 8.46249 18.752 8.17634 18.752 7.87797C18.752 7.5796 18.6334 7.29345 18.4224 7.08248C18.2115 6.8715 17.9253 6.75297 17.627 6.75297L3.8457 6.75297L8.6757 1.92391C8.88705 1.71256 9.00578 1.42592 9.00578 1.12703C9.00578 0.828148 8.88705 0.541504 8.6757 0.330159C8.46436 0.118815 8.17771 8.02347e-05 7.87883 8.02383e-05C7.57994 8.02419e-05 7.2933 0.118815 7.08195 0.330159L7.08101 0.332033Z" fill="black"/>
</svg>
