<svg width="56" height="56" viewBox="0 0 56 56" fill="none" xmlns="http://www.w3.org/2000/svg">
<path d="M28 0C22.4621 0 17.0486 1.64217 12.444 4.71885C7.83947 7.79553 4.25064 12.1685 2.13139 17.2849C0.012132 22.4012 -0.542361 28.0311 0.538025 33.4625C1.61841 38.894 4.28515 43.8831 8.20102 47.799C12.1169 51.7148 17.106 54.3816 22.5375 55.462C27.9689 56.5424 33.5988 55.9879 38.7151 53.8686C43.8315 51.7494 48.2045 48.1605 51.2812 43.556C54.3578 38.9514 56 33.5379 56 28C55.9918 20.5765 53.0391 13.4593 47.7899 8.2101C42.5407 2.96087 35.4235 0.00823465 28 0ZM15.4441 45.7774C16.8884 43.8026 18.7781 42.1963 20.9597 41.089C23.1414 39.9817 25.5534 39.4047 28 39.4047C30.4466 39.4047 32.8586 39.9817 35.0403 41.089C37.222 42.1963 39.1117 43.8026 40.5559 45.7774C36.8863 48.3798 32.4987 49.7777 28 49.7777C23.5013 49.7777 19.1137 48.3798 15.4441 45.7774ZM20.7407 25.9259C20.7407 24.4902 21.1665 23.0867 21.9642 21.8929C22.7618 20.6991 23.8956 19.7687 25.222 19.2192C26.5485 18.6698 28.0081 18.526 29.4162 18.8061C30.8244 19.0862 32.1179 19.7776 33.1331 20.7929C34.1483 21.8081 34.8397 23.1015 35.1198 24.5097C35.3999 25.9179 35.2561 27.3775 34.7067 28.7039C34.1572 30.0304 33.2268 31.1641 32.033 31.9618C30.8393 32.7594 29.4358 33.1852 28 33.1852C26.0747 33.1852 24.2283 32.4204 22.8669 31.059C21.5056 29.6976 20.7407 27.8512 20.7407 25.9259ZM45.1111 41.4659C43.0946 38.9011 40.5244 36.8255 37.5926 35.3941C39.4611 33.502 40.7282 31.0996 41.2347 28.4891C41.7412 25.8786 41.4643 23.1766 40.439 20.7231C39.4137 18.2695 37.6856 16.174 35.4723 14.7001C33.2589 13.2263 30.6592 12.4399 28 12.4399C25.3408 12.4399 22.7411 13.2263 20.5277 14.7001C18.3144 16.174 16.5864 18.2695 15.561 20.7231C14.5357 23.1766 14.2588 25.8786 14.7653 28.4891C15.2718 31.0996 16.539 33.502 18.4074 35.3941C15.4756 36.8255 12.9054 38.9011 10.8889 41.4659C8.35605 38.2551 6.77846 34.396 6.3367 30.3304C5.89494 26.2648 6.60688 22.1569 8.39101 18.4771C10.1751 14.7972 12.9594 11.6941 16.425 9.52289C19.8906 7.3517 23.8975 6.20019 27.987 6.20019C32.0766 6.20019 36.0835 7.3517 39.5491 9.52289C43.0147 11.6941 45.7989 14.7972 47.5831 18.4771C49.3672 22.1569 50.0791 26.2648 49.6374 30.3304C49.1956 34.396 47.618 38.2551 45.0852 41.4659H45.1111Z" fill="#F6AA1C"/>
</svg>
