<svg width="27" height="27" viewBox="0 0 27 27" fill="none" xmlns="http://www.w3.org/2000/svg">
<path d="M25.7064 23.0548C26.0586 23.4071 26.2565 23.8848 26.2565 24.3829C26.2565 24.8811 26.0586 25.3588 25.7064 25.7111C25.3541 26.0633 24.8764 26.2612 24.3783 26.2612C23.8801 26.2612 23.4024 26.0633 23.0501 25.7111L13.1298 15.7876L3.20638 25.7079C2.85414 26.0602 2.3764 26.2581 1.87825 26.2581C1.38011 26.2581 0.902368 26.0602 0.550128 25.7079C0.197887 25.3557 7.42292e-09 24.878 0 24.3798C-7.42292e-09 23.8817 0.197887 23.4039 0.550128 23.0517L10.4736 13.1314L0.553252 3.20794C0.201011 2.8557 0.00312507 2.37796 0.00312507 1.87981C0.00312508 1.38167 0.201011 0.90393 0.553252 0.55169C0.905493 0.199449 1.38323 0.00156224 1.88138 0.00156224C2.37952 0.00156223 2.85726 0.199449 3.2095 0.55169L13.1298 10.4751L23.0532 0.550127C23.4055 0.197886 23.8832 -8.29907e-09 24.3814 0C24.8795 8.29907e-09 25.3573 0.197886 25.7095 0.550127C26.0617 0.902368 26.2596 1.38011 26.2596 1.87825C26.2596 2.3764 26.0617 2.85414 25.7095 3.20638L15.7861 13.1314L25.7064 23.0548Z" fill="white"/>
</svg>
